<?xml version="1.0" encoding="utf-8"?>
<!-- Generator: Adobe Illustrator 26.0.1, SVG Export Plug-In . SVG Version: 6.00 Build 0)  -->
<svg version="1.1" id="Layer_1" xmlns="http://www.w3.org/2000/svg" xmlns:xlink="http://www.w3.org/1999/xlink" x="0px" y="0px"
	 viewBox="0 0 150 120" style="enable-background:new 0 0 150 120;" xml:space="preserve">
<style type="text/css">
	.st0{fill:#1A3F70;}
	.st1{fill:#0B72B4;}
	.st2{fill:#002F66;}
</style>
<g>
	<rect x="52.8" y="64" class="st0" width="10.7" height="1.9"/>
	<rect x="53.9" y="24.8" class="st1" width="8.6" height="0.4"/>
	<path class="st1" d="M55.7,30.6v7.1h5.1v-7.1H55.7z M60.1,36.8h-3.6v-0.4h3.6V36.8z M60.1,35.2h-3.6v-0.4h3.6V35.2z M60.1,33.6
		h-3.6v-0.4h3.6V33.6z M60.1,32h-3.6v-0.4h3.6V32z"/>
	<path class="st1" d="M56.3,25.5v4.3H60v-4.3H56.3z M59.3,29.1H57v-0.4h2.3V29.1z M59.3,27.9H57v-0.4h2.3V27.9z M59.3,26.7H57v-0.4
		h2.3V26.7z"/>
	<rect x="85.9" y="64" class="st0" width="10.7" height="1.9"/>
	<rect x="87" y="24.8" class="st1" width="8.6" height="0.4"/>
	<path class="st1" d="M88.7,30.6v7.1h5.1v-7.1H88.7z M93.1,36.8h-3.7v-0.4H93L93.1,36.8L93.1,36.8z M93.1,35.2h-3.7v-0.4H93
		L93.1,35.2L93.1,35.2z M93.1,33.6h-3.7v-0.4H93L93.1,33.6L93.1,33.6z M93.1,32h-3.7v-0.4H93L93.1,32L93.1,32z"/>
	<path class="st1" d="M89.4,25.5v4.3H93v-4.3H89.4z M92.4,29.1h-2.3v-0.4h2.3V29.1z M92.4,27.9h-2.3v-0.4h2.3V27.9z M92.4,26.7h-2.3
		v-0.4h2.3V26.7z"/>
	<path class="st1" d="M87,38.3V40c-0.5,1.7-1.2,3.3-2,4.7l0,0l0,0c-2.5,4.6-6.2,7.5-10.3,7.5c-5.3,0-9.9-4.9-12.3-12v-2h-8.5v25.1
		h8.5v-22c0.2,0.4,0.3,0.9,0.5,1.3v10.9h0.2V43.1c0.3,0.6,0.6,1.2,0.9,1.8v8.6h0.2v-8.2c0.3,0.5,0.6,1,0.9,1.4v6.7h0.2V47
		c0.3,0.4,0.5,0.7,0.8,1v5.4h0.2v-5c0.3,0.3,0.6,0.6,0.8,0.9v4.2h0.2v-3.9c0.3,0.3,0.6,0.5,0.9,0.8v3.2h0.2v-3.1
		c0.3,0.2,0.7,0.5,1,0.7v2.3H70v-2.2c0.3,0.2,0.6,0.4,0.9,0.5v1.7h0.2v-1.6c1.1,0.4,2.3,0.7,3.5,0.7s2.3-0.2,3.4-0.7v1.6h0.2v-1.7
		c0.3-0.1,0.6-0.3,0.9-0.5v2.2h0.2v-2.3c0.4-0.2,0.7-0.4,1-0.7v3h0.2v-3.2c0.3-0.2,0.6-0.5,0.9-0.8v3.9h0.2v-4.1
		c0.3-0.3,0.6-0.6,0.8-0.9v5h0.2v-5.3c0.3-0.3,0.6-0.7,0.8-1v6.3h0.2v-6.7c0.3-0.4,0.6-0.9,0.9-1.4v8.1h0.2V45
		c0.3-0.6,0.6-1.1,0.9-1.8v10.3h0.2V42.6c0.2-0.5,0.4-1,0.6-1.5v22.3h8.7V38.3H87z M61.5,62.3H55v-0.5h6.5V62.3z M61.5,60.6H55v-0.5
		h6.5V60.6z M61.5,58.9H55v-0.5h6.5V58.9z M61.5,57.1H55v-0.5h6.5V57.1z M61.5,55.5H55V55h6.5V55.5z M61.5,53.7H55v-0.5h6.5V53.7z
		 M61.5,52.1H55v-0.5h6.5V52.1z M61.5,50.3H55v-0.5h6.5V50.3z M61.5,48.6H55v-0.5h6.5V48.6z M61.5,46.9H55v-0.5h6.5V46.9z
		 M61.5,45.2H55v-0.5h6.5V45.2z M61.5,43.5H55V43h6.5V43.5z M61.5,41.8H55v-0.5h6.5V41.8z M61.5,40.1H55v-0.5h6.5V40.1z M94.6,62.3
		H88v-0.5h6.5L94.6,62.3L94.6,62.3z M94.6,60.6H88v-0.5h6.5L94.6,60.6L94.6,60.6z M94.6,58.9H88v-0.5h6.5L94.6,58.9L94.6,58.9z
		 M94.6,57.1H88v-0.5h6.5L94.6,57.1L94.6,57.1z M94.6,55.5H88V55h6.5L94.6,55.5L94.6,55.5z M94.6,53.7H88v-0.5h6.5L94.6,53.7
		L94.6,53.7z M94.6,52.1H88v-0.5h6.5L94.6,52.1L94.6,52.1z M94.6,50.3H88v-0.5h6.5L94.6,50.3L94.6,50.3z M94.6,48.6H88v-0.5h6.5
		L94.6,48.6L94.6,48.6z M94.6,46.9H88v-0.5h6.5L94.6,46.9L94.6,46.9z M94.6,45.2H88v-0.5h6.5L94.6,45.2L94.6,45.2z M94.6,43.5H88V43
		h6.5L94.6,43.5L94.6,43.5z M94.6,41.8H88v-0.5h6.5L94.6,41.8L94.6,41.8z M94.6,40.1H88v-0.5h6.5L94.6,40.1L94.6,40.1z"/>
	<g>
		<path class="st2" d="M36,71.2v16.1h-3.7v-6.5H21.4v6.5h-3.7V71.2h3.7v6.3h10.9v-6.3H36z"/>
		<path class="st2" d="M53.1,83.8h-9.7l-1.7,3.4h-4l8.5-16.1h4l8.5,16.1h-4L53.1,83.8z M51.6,80.9l-3.3-6.5L45,80.9H51.6z"/>
		<path class="st2" d="M77.4,82.4c0,3.2-3,5.4-8.7,5.4c-4.1,0-7.3-1.2-9.8-3.2L61,82c2,1.8,4.5,2.7,7.8,2.7s4.9-0.6,4.9-1.9
			s-1.6-1.7-5.4-2c-4.6-0.4-8.8-1.4-8.8-4.8s3.6-5.2,8.5-5.2c3.5,0,6.5,0.9,8.6,2.5l-2,2.5c-1.8-1.3-3.9-1.9-6.5-1.9
			c-2.2,0-4.8,0.4-4.8,1.8s2.3,1.5,5.5,1.8C73.9,77.8,77.4,78.9,77.4,82.4z"/>
		<path class="st2" d="M98.7,71.2v16.1H95v-6.5H84v6.5h-3.6V71.2h3.7v6.3H95v-6.3H98.7z"/>
		<path class="st2" d="M103,87.2v-16h3.7v16.1L103,87.2L103,87.2z"/>
		<path class="st2" d="M132.5,71.2v16.1h-3.7V76.1l-7,8.6h-0.2l-7.1-8.6v11.2H111V71.2h4l6.8,8.5l6.8-8.5H132.5L132.5,71.2z"/>
		<rect x="17.5" y="53.6" class="st2" width="34.9" height="1.6"/>
		<rect x="97" y="53.6" class="st2" width="35.5" height="1.6"/>
		<rect x="17.5" y="56.7" class="st2" width="34.9" height="1.6"/>
		<rect x="62.3" y="56.7" class="st2" width="24.6" height="1.6"/>
		<rect x="97" y="56.7" class="st2" width="35.5" height="1.6"/>
		<polygon class="st2" points="55.7,25.5 53.9,25.5 53.9,28.6 53.9,29.9 53.9,31.8 54.9,31.8 54.9,29.9 55.7,29.9 		"/>
		<polygon class="st2" points="60.8,25.5 62.5,25.5 62.5,28.6 62.5,29.9 62.5,31.8 61.5,31.8 61.5,29.9 60.8,29.9 		"/>
		<rect x="53.9" y="32.4" class="st2" width="1" height="5.3"/>
		<rect x="61.5" y="32.4" class="st2" width="1" height="5.3"/>
		<rect x="55.4" y="22.5" class="st2" width="5.8" height="2.1"/>
		<rect x="57.3" y="20.3" class="st2" width="1.9" height="1.5"/>
		<polygon class="st2" points="88.7,25.5 86.9,25.5 86.9,28.6 86.9,29.9 86.9,31.8 87.9,31.8 87.9,29.9 88.7,29.9 		"/>
		<polygon class="st2" points="93.8,25.5 95.5,25.5 95.5,28.6 95.5,29.9 95.5,31.8 94.6,31.8 94.6,29.9 93.8,29.9 		"/>
		<rect x="86.9" y="32.4" class="st2" width="1" height="5.3"/>
		<rect x="94.6" y="32.4" class="st2" width="1" height="5.3"/>
		<rect x="88.4" y="22.5" class="st2" width="5.8" height="2.1"/>
		<rect x="90.3" y="20.3" class="st2" width="1.9" height="1.5"/>
		<rect x="62.4" y="53.5" class="st2" width="24.5" height="1.8"/>
		<g>
			<path class="st2" d="M53.7,97.7c-0.9,1.1-2.6,1.9-4.9,1.9C45.3,99.6,43,98,43,95s2.2-4.6,5.8-4.6c2.1,0,3.7,0.8,4.6,1.6l-1.8,1.3
				c-0.8-0.7-1.5-1-2.7-1c-2.1,0-3.3,0.9-3.3,2.6s1.2,2.6,3.3,2.6c1.1,0,1.9-0.2,2.5-0.8v-0.8h-2.9v-1.8h5.2L53.7,97.7L53.7,97.7z"
				/>
			<path class="st2" d="M64.1,99.3l-2.3-2.7h-2.5v2.7h-2.5v-8.6h6.1c2.2,0,3.9,1,3.9,3c0,1.5-0.9,2.3-2.3,2.7l2.5,2.9H64.1
				L64.1,99.3z M62.7,94.8c0.9,0,1.5-0.2,1.5-1.1s-0.7-1.1-1.5-1.1h-3.4v2.2H62.7L62.7,94.8z"/>
			<path class="st2" d="M69.3,95c0-2.9,2.2-4.6,5.6-4.6s5.6,1.7,5.6,4.6s-2.2,4.6-5.6,4.6S69.3,97.9,69.3,95z M78,95
				c0-1.6-1.1-2.6-3.1-2.6c-1.9,0-3.1,0.9-3.1,2.6c0,1.6,1.2,2.6,3.1,2.6S78,96.7,78,95z"/>
			<path class="st2" d="M93.4,90.7v4.6c0,2.6-1.8,4.4-5,4.4s-5-1.7-5-4.4v-4.6h2.5v4.4c0,1.5,0.8,2.5,2.5,2.5s2.5-1,2.5-2.5v-4.4
				H93.4z"/>
			<path class="st2" d="M106.7,93.7c0,2-1.5,3-3.9,3h-3.4v2.6h-2.5v-8.6h6C105.2,90.7,106.7,91.8,106.7,93.7z M104.2,93.8
				c0-0.9-0.6-1.2-1.6-1.2h-3.3v2.3h3.3C103.6,94.9,104.2,94.6,104.2,93.8z"/>
		</g>
	</g>
</g>
</svg>
