<?xml version="1.0" encoding="utf-8"?>
<!-- Generator: Adobe Illustrator 26.0.1, SVG Export Plug-In . SVG Version: 6.00 Build 0)  -->
<svg version="1.1" id="Layer_1" xmlns="http://www.w3.org/2000/svg" xmlns:xlink="http://www.w3.org/1999/xlink" x="0px" y="0px"
	 viewBox="0 0 600 480" style="enable-background:new 0 0 600 480;" xml:space="preserve">
<style type="text/css">
	.st0{fill:#1A3F70;}
	.st1{fill:#0B72B4;}
	.st2{fill:#002F66;}
</style>
<g>
	<rect x="188.9" y="260" class="st0" width="53.6" height="9.5"/>
	<rect x="194.4" y="63.8" class="st1" width="43.1" height="2"/>
	<path class="st1" d="M203.4,92.8v35.5h25.5V92.8H203.4z M225.4,123.8h-18v-2h18V123.8z M225.4,115.8h-18v-2h18V115.8z M225.4,107.8
		h-18v-2h18V107.8z M225.4,99.8h-18v-2h18V99.8z"/>
	<path class="st1" d="M206.4,67.3v21.5h18.5V67.3H206.4z M221.4,85.3h-11.5v-2h11.5V85.3z M221.4,79.3h-11.5v-2h11.5V79.3z
		 M221.4,73.3h-11.5v-2h11.5V73.3z"/>
	<rect x="354.6" y="260" class="st0" width="53.6" height="9.5"/>
	<rect x="360.1" y="63.8" class="st1" width="43.1" height="2"/>
	<path class="st1" d="M368.6,92.8v35.5h25.5V92.8H368.6z M390.6,123.8h-18.5v-2h18L390.6,123.8L390.6,123.8z M390.6,115.8h-18.5v-2
		h18L390.6,115.8L390.6,115.8z M390.6,107.8h-18.5v-2h18L390.6,107.8L390.6,107.8z M390.6,99.8h-18.5v-2h18L390.6,99.8L390.6,99.8z"
		/>
	<path class="st1" d="M372.1,67.3v21.5h18V67.3H372.1z M387.1,85.3h-11.5v-2h11.5V85.3z M387.1,79.3h-11.5v-2h11.5V79.3z
		 M387.1,73.3h-11.5v-2h11.5V73.3z"/>
	<path class="st1" d="M360.1,131.4v8.5c-2.5,8.5-6,16.5-10,23.5l0,0l0,0c-12.5,23-31,37.6-51.6,37.6c-26.5,0-49.6-24.5-61.6-60.1
		v-10h-42.6v125.7h42.6V146.4c1,2,1.5,4.5,2.5,6.5v54.6h1v-52.1c1.5,3,3,6,4.5,9v43.1h1v-41.1c1.5,2.5,3,5,4.5,7V207h1v-32
		c1.5,2,2.5,3.5,4,5v27h1v-25c1.5,1.5,3,3,4,4.5v21h1v-19.5c1.5,1.5,3,2.5,4.5,4v16h1v-15.5c1.5,1,3.5,2.5,5,3.5v11.5h3v-11
		c1.5,1,3,2,4.5,2.5v8.5h1v-8c5.5,2,11.5,3.5,17.5,3.5s11.5-1,17-3.5v8h1v-8.5c1.5-0.5,3-1.5,4.5-2.5v11h1v-11.5c2-1,3.5-2,5-3.5v15
		h1v-16c1.5-1,3-2.5,4.5-4V207h1v-20.5c1.5-1.5,3-3,4-4.5v25h1v-26.5c1.5-1.5,3-3.5,4-5V207h1v-33.5c1.5-2,3-4.5,4.5-7V207h1v-42.1
		c1.5-3,3-5.5,4.5-9v51.6h1v-54.6c1-2.5,2-5,3-7.5V257h43.6V131.4H360.1z M232.4,251.5h-32.5V249h32.5V251.5z M232.4,243h-32.5v-2.5
		h32.5V243z M232.4,234.5h-32.5V232h32.5V234.5z M232.4,225.5h-32.5V223h32.5V225.5z M232.4,217.5h-32.5V215h32.5V217.5z
		 M232.4,208.5h-32.5V206h32.5V208.5z M232.4,200.4h-32.5v-2.5h32.5V200.4z M232.4,191.4h-32.5v-2.5h32.5V191.4z M232.4,182.9h-32.5
		v-2.5h32.5V182.9z M232.4,174.4h-32.5v-2.5h32.5V174.4z M232.4,165.9h-32.5v-2.5h32.5V165.9z M232.4,157.4h-32.5v-2.5h32.5V157.4z
		 M232.4,148.9h-32.5v-2.5h32.5V148.9z M232.4,140.4h-32.5v-2.5h32.5V140.4z M398.1,251.5h-33V249h32.5v2.5H398.1z M398.1,243h-33
		v-2.5h32.5v2.5H398.1z M398.1,234.5h-33V232h32.5v2.5H398.1z M398.1,225.5h-33V223h32.5v2.5H398.1z M398.1,217.5h-33V215h32.5v2.5
		H398.1z M398.1,208.5h-33V206h32.5v2.5H398.1z M398.1,200.4h-33v-2.5h32.5v2.5H398.1z M398.1,191.4h-33v-2.5h32.5v2.5H398.1z
		 M398.1,182.9h-33v-2.5h32.5v2.5H398.1z M398.1,174.4h-33v-2.5h32.5v2.5H398.1z M398.1,165.9h-33v-2.5h32.5v2.5H398.1z
		 M398.1,157.4h-33v-2.5h32.5v2.5H398.1z M398.1,148.9h-33v-2.5h32.5v2.5H398.1z M398.1,140.4h-33v-2.5h32.5v2.5H398.1z"/>
	<g>
		<path class="st2" d="M104.7,296.1v80.6H86.2v-32.5H31.6v32.5H13.1v-80.6h18.5v31.5h54.6v-31.5H104.7z"/>
		<path class="st2" d="M190.4,359.2h-48.6l-8.5,17h-20l42.6-80.6h20l42.6,80.6h-20L190.4,359.2z M182.8,344.6l-16.5-32.5l-16.5,32.5
			H182.8z"/>
		<path class="st2" d="M312,352.2c0,16-15,27-43.6,27c-20.5,0-36.5-6-49.1-16l10.5-13c10,9,22.5,13.5,39.1,13.5s24.5-3,24.5-9.5
			s-8-8.5-27-10c-23-2-44.1-7-44.1-24c0-17,18-26,42.6-26c17.5,0,32.5,4.5,43.1,12.5l-10,12.5c-9-6.5-19.5-9.5-32.5-9.5
			c-11,0-24,2-24,9c0,7,11.5,7.5,27.5,9C294.5,329.1,312,334.6,312,352.2z"/>
		<path class="st2" d="M418.7,296.1v80.6h-18.5v-32.5h-55.1v32.5h-18v-80.6h18.5v31.5h54.6v-31.5H418.7z"/>
		<path class="st2" d="M440.2,376.2v-80.1h18.5v80.6h-18.5V376.2z"/>
		<path class="st2" d="M587.9,296.1v80.6h-18.5v-56.1l-35,43.1h-1l-35.5-43.1v56.1h-17.5v-80.6h20l34,42.6l34-42.6H587.9
			L587.9,296.1z"/>
		<rect x="12.1" y="208" class="st2" width="174.7" height="8"/>
		<rect x="410.1" y="208" class="st2" width="177.7" height="8"/>
		<rect x="12.1" y="223.5" class="st2" width="174.7" height="8"/>
		<rect x="236.4" y="223.5" class="st2" width="123.2" height="8"/>
		<rect x="410.1" y="223.5" class="st2" width="177.7" height="8"/>
		<polygon class="st2" points="203.4,67.3 194.4,67.3 194.4,82.8 194.4,89.3 194.4,98.8 199.4,98.8 199.4,89.3 203.4,89.3 		"/>
		<polygon class="st2" points="228.9,67.3 237.4,67.3 237.4,82.8 237.4,89.3 237.4,98.8 232.4,98.8 232.4,89.3 228.9,89.3 		"/>
		<rect x="194.4" y="101.8" class="st2" width="5" height="26.5"/>
		<rect x="232.4" y="101.8" class="st2" width="5" height="26.5"/>
		<rect x="201.9" y="52.2" class="st2" width="29" height="10.5"/>
		<rect x="211.4" y="41.2" class="st2" width="9.5" height="7.5"/>
		<polygon class="st2" points="368.6,67.3 359.6,67.3 359.6,82.8 359.6,89.3 359.6,98.8 364.6,98.8 364.6,89.3 368.6,89.3 		"/>
		<polygon class="st2" points="394.1,67.3 402.6,67.3 402.6,82.8 402.6,89.3 402.6,98.8 398.1,98.8 398.1,89.3 394.1,89.3 		"/>
		<rect x="359.6" y="101.8" class="st2" width="5" height="26.5"/>
		<rect x="398.1" y="101.8" class="st2" width="5" height="26.5"/>
		<rect x="367.1" y="52.2" class="st2" width="29" height="10.5"/>
		<rect x="376.6" y="41.2" class="st2" width="9.5" height="7.5"/>
		<rect x="236.9" y="207.5" class="st2" width="122.7" height="9"/>
		<g>
			<path class="st2" d="M193.4,428.8c-4.5,5.5-13,9.5-24.5,9.5c-17.5,0-29-8-29-23c0-15,11-23,29-23c10.5,0,18.5,4,23,8l-9,6.5
				c-4-3.5-7.5-5-13.5-5c-10.5,0-16.5,4.5-16.5,13s6,13,16.5,13c5.5,0,9.5-1,12.5-4v-4h-14.5v-9h26L193.4,428.8L193.4,428.8z"/>
			<path class="st2" d="M245.4,436.8l-11.5-13.5h-12.5v13.5h-12.5v-43.1h30.5c11,0,19.5,5,19.5,15c0,7.5-4.5,11.5-11.5,13.5
				l12.5,14.5H245.4L245.4,436.8z M238.4,414.2c4.5,0,7.5-1,7.5-5.5s-3.5-5.5-7.5-5.5h-17v11H238.4L238.4,414.2z"/>
			<path class="st2" d="M271.5,415.2c0-14.5,11-23,28-23c17,0,28,8.5,28,23s-11,23-28,23C282.5,438.3,271.5,429.8,271.5,415.2z
				 M315,415.2c0-8-5.5-13-15.5-13c-9.5,0-15.5,4.5-15.5,13c0,8,6,13,15.5,13C309,428.3,315,423.7,315,415.2z"/>
			<path class="st2" d="M392.1,393.7v23c0,13-9,22-25,22s-25-8.5-25-22v-23h12.5v22c0,7.5,4,12.5,12.5,12.5s12.5-5,12.5-12.5v-22
				H392.1z"/>
			<path class="st2" d="M458.7,408.7c0,10-7.5,15-19.5,15h-17v13h-12.5v-43.1h30C451.2,393.7,458.7,399.2,458.7,408.7z M446.2,409.2
				c0-4.5-3-6-8-6h-16.5v11.5h16.5C443.2,414.7,446.2,413.2,446.2,409.2z"/>
		</g>
	</g>
</g>
</svg>
